<svg width="535" height="100" viewBox="0 0 535 100" fill="none" xmlns="http://www.w3.org/2000/svg">
<rect x="0.5" y="6.5" width="102" height="87" stroke="black"/>
<rect x="184.5" y="6.5" width="102" height="87" fill="#C4C4C4" stroke="black"/>
<rect x="18.5" y="22.5" width="66" height="55" stroke="black"/>
<rect x="9.5" y="13.5" width="84" height="72" stroke="black"/>
<rect x="176.5" y="21.5" width="84" height="72" fill="#C4C4C4" stroke="black"/>
<rect x="168.5" y="38.5" width="66" height="55" fill="#C4C4C4" stroke="black"/>
<rect x="28.5" y="29.5" width="47" height="40" stroke="black"/>
<rect x="160.5" y="53.5" width="47" height="40" fill="#C4C4C4" stroke="black"/>
<rect x="37.5" y="36.5" width="29" height="25" stroke="black"/>
<rect x="152.5" y="68.5" width="29" height="25" fill="#C4C4C4" stroke="black"/>
<path d="M378.289 92.8013L353.577 50L378.289 7.19873H427.711L452.423 50L427.711 92.8013H378.289Z" stroke="black"/>
<path d="M382.539 86.8061L361.577 50.5L382.539 14.1939H424.461L445.423 50.5L424.461 86.8061H382.539Z" stroke="black"/>
<path d="M393.289 66.8205L383.577 50L393.289 33.1795H412.711L422.423 50L412.711 66.8205H393.289Z" stroke="black"/>
<path d="M390.039 73.8157L376.577 50.5L390.039 27.1843H416.961L430.423 50.5L416.961 73.8157H390.039Z" stroke="black"/>
<path d="M385.789 79.8109L368.577 50L385.789 20.1891H420.211L437.423 50L420.211 79.8109H385.789Z" stroke="black"/>
<circle cx="129.5" cy="43.5" r="2.5" fill="black"/>
<circle cx="476.5" cy="45.5" r="2.5" fill="black"/>
<circle cx="129.5" cy="55.5" r="2.5" fill="black"/>
<circle cx="476.5" cy="57.5" r="2.5" fill="black"/>
<line x1="314.985" y1="47.5" x2="332.015" y2="47.5" stroke="black" stroke-width="2"/>
<line x1="315" y1="54" x2="332.029" y2="54" stroke="black" stroke-width="2"/>
<path d="M509.844 58.9912C509.874 57.248 510.071 55.8711 510.438 54.8604C510.804 53.8496 511.551 52.729 512.679 51.4985L515.557 48.5322C516.788 47.1406 517.403 45.6465 517.403 44.0498C517.403 42.5117 517 41.3105 516.194 40.4463C515.389 39.5674 514.217 39.1279 512.679 39.1279C511.185 39.1279 509.983 39.5234 509.075 40.3145C508.167 41.1055 507.713 42.1675 507.713 43.5005H503.648C503.677 41.1274 504.52 39.2158 506.175 37.7656C507.845 36.3008 510.013 35.5684 512.679 35.5684C515.447 35.5684 517.601 36.3154 519.139 37.8096C520.691 39.2891 521.468 41.3252 521.468 43.918C521.468 46.4814 520.281 49.0083 517.908 51.4985L515.513 53.8716C514.444 55.0581 513.909 56.7646 513.909 58.9912H509.844ZM509.668 65.9565C509.668 65.2974 509.866 64.748 510.262 64.3086C510.672 63.8545 511.272 63.6274 512.063 63.6274C512.854 63.6274 513.455 63.8545 513.865 64.3086C514.275 64.748 514.48 65.2974 514.48 65.9565C514.48 66.6157 514.275 67.165 513.865 67.6045C513.455 68.0293 512.854 68.2417 512.063 68.2417C511.272 68.2417 510.672 68.0293 510.262 67.6045C509.866 67.165 509.668 66.6157 509.668 65.9565Z" fill="black"/>
</svg>
