<svg width="120" height="81" viewBox="0 0 120 81" fill="none" xmlns="http://www.w3.org/2000/svg">
<path d="M59.7113 75.101L79.4226 40.96L59.7113 6.81897H20.2887L0.577354 40.96L20.2887 75.101H59.7113Z" fill="#C4C4C4" stroke="black"/>
<path d="M73.9113 75L90.6226 46.0551L73.9113 17.1102H40.4887L23.7774 46.0551L40.4887 75H73.9113Z" fill="#C4C4C4" stroke="black"/>
<path d="M87.3113 75.1L101.023 51.3513L87.3113 27.6025H59.8887L46.1773 51.3513L59.8887 75.1H87.3113Z" fill="#C4C4C4" stroke="black"/>
<path d="M98.3113 75.1225L109.023 56.57L98.3113 38.0174H76.8887L66.1773 56.57L76.8887 75.1225H98.3113Z" fill="#C4C4C4" stroke="black"/>
<path d="M110.911 75.1364L118.623 61.78L110.911 48.4236H95.4887L87.7773 61.78L95.4887 75.1364H110.911Z" fill="#C4C4C4" stroke="black"/>
</svg>
