<svg width="80" height="80" viewBox="0 0 80 80" fill="none" xmlns="http://www.w3.org/2000/svg">
<path d="M20.2887 74.141L0.57735 40L20.2887 5.85898H59.7113L79.4226 40L59.7113 74.141H20.2887Z" stroke="#00e5ff"/>
<path d="M23.6887 68.7897L6.97734 39.8449L23.6887 10.9H57.1113L73.8226 39.8449L57.1113 68.7897H23.6887Z" fill="#C4C4C4" stroke="black"/>
<path d="M26.2887 64.3L12.5774 40.5513L26.2887 16.8026H53.7113L67.4227 40.5513L53.7113 64.3H26.2887Z" fill="#C4C4C4" stroke="black"/>
<path d="M29.6887 58.1526L18.9773 39.6L29.6887 21.0474H51.1113L61.8226 39.6L51.1113 58.1526H29.6887Z" fill="#C4C4C4" stroke="black"/>
<path d="M32.2887 53.3564L24.5774 40L32.2887 26.6436H47.7113L55.4227 40L47.7113 53.3564H32.2887Z" fill="#C4C4C4" stroke="black"/>
</svg>
