<svg width="120" height="80" viewBox="0 0 120 80" fill="none" xmlns="http://www.w3.org/2000/svg">
<path d="M59.4887 74.141L39.7774 40L59.4887 5.85898H98.9113L118.623 40L98.9113 74.141H59.4887Z" fill="#C4C4C4" stroke="black"/>
<path d="M45.2887 74L28.5774 45.0551L45.2887 16.1103H78.7113L95.4226 45.0551L78.7113 74H45.2887Z" fill="#C4C4C4" stroke="black"/>
<path d="M31.8887 74.15L18.1774 50.4013L31.8887 26.6526H59.3113L73.0227 50.4013L59.3113 74.15H31.8887Z" fill="#C4C4C4" stroke="black"/>
<path d="M20.8887 74.1526L10.1774 55.6L20.8887 37.0474H42.3113L53.0227 55.6L42.3113 74.1526H20.8887Z" fill="#C4C4C4" stroke="black"/>
<path d="M8.28868 74.1564L0.57735 60.8L8.28868 47.4436H23.7113L31.4227 60.8L23.7113 74.1564H8.28868Z" fill="#C4C4C4" stroke="black"/>
</svg>
