<svg width="436" height="138" viewBox="0 0 436 138" fill="none" xmlns="http://www.w3.org/2000/svg">
<line x1="206" y1="61" x2="223.029" y2="61" stroke="white" stroke-width="2"/>
<line x1="206.015" y1="67.5" x2="223.044" y2="67.5" stroke="white" stroke-width="2"/>
<circle cx="377.5" cy="57.5" r="2.5" fill="white"/>
<circle cx="377.5" cy="69.5" r="2.5" fill="white"/>
<path d="M410.844 70.9912C410.874 69.248 411.071 67.8711 411.438 66.8604C411.804 65.8496 412.551 64.729 413.679 63.4985L416.557 60.5322C417.788 59.1406 418.403 57.6465 418.403 56.0498C418.403 54.5117 418 53.3105 417.194 52.4463C416.389 51.5674 415.217 51.1279 413.679 51.1279C412.185 51.1279 410.983 51.5234 410.075 52.3145C409.167 53.1055 408.713 54.1675 408.713 55.5005H404.648C404.677 53.1274 405.52 51.2158 407.175 49.7656C408.845 48.3008 411.013 47.5684 413.679 47.5684C416.447 47.5684 418.601 48.3154 420.139 49.8096C421.691 51.2891 422.468 53.3252 422.468 55.918C422.468 58.4814 421.281 61.0083 418.908 63.4985L416.513 65.8716C415.444 67.0581 414.909 68.7646 414.909 70.9912H410.844ZM410.668 77.9565C410.668 77.2974 410.866 76.748 411.262 76.3086C411.672 75.8545 412.272 75.6274 413.063 75.6274C413.854 75.6274 414.455 75.8545 414.865 76.3086C415.275 76.748 415.48 77.2974 415.48 77.9565C415.48 78.6157 415.275 79.165 414.865 79.6045C414.455 80.0293 413.854 80.2417 413.063 80.2417C412.272 80.2417 411.672 80.0293 411.262 79.6045C410.866 79.165 410.668 78.6157 410.668 77.9565Z" fill="white"/>
<path d="M249 79.5289L258 69M249 79.5289L258 89M249 79.5289L282.622 80.0289V57.8182H305.359V126H327.579V12.3636H356M356 12.3636L346 1M356 12.3636L346 23" stroke="white" stroke-width="2"/>
<circle cx="85.5" cy="59.5" r="2.5" fill="white"/>
<circle cx="85.5" cy="71.5" r="2.5" fill="white"/>
<path d="M36.5 31H17V51H53V12H2V69H53V126H2M2 126L12 114.5M2 126L12 137" stroke="white" stroke-width="2"/>
<path d="M134.5 107H154V87H118V126H169V69H118V12H169M169 12L159 23.5M169 12L159 1" stroke="white" stroke-width="2"/>
</svg>
